<svg xmlns="http://www.w3.org/2000/svg" width="179.006" height="88.358" viewBox="0 0 179.006 88.358">
  <g id="Group_11" data-name="Group 11" transform="translate(-88 -29)">
    <path id="Path_1" data-name="Path 1" d="M446.805,0H406.323A2.929,2.929,0,0,0,403.4,2.857,2.935,2.935,0,0,0,400.482,0H360a1.716,1.716,0,0,0-1.71,1.71V37.3a1.715,1.715,0,0,0,1.71,1.71h40.178A3.238,3.238,0,0,1,403.4,42.16a3.238,3.238,0,0,1,3.226-3.154h40.178a1.713,1.713,0,0,0,1.71-1.71V1.71A1.715,1.715,0,0,0,446.808,0Z" transform="translate(-181.512 29)" fill="#ffd129"/>
    <path id="Path_2" data-name="Path 2" d="M35.18,19.134a4.471,4.471,0,0,0-.032-.575.631.631,0,0,0-.627-.577c-.136-.01-.275-.007-.411-.007H20.992a1.249,1.249,0,0,0-.463.022,1.14,1.14,0,0,0-.513.354,1.113,1.113,0,0,0-.112.58c-.007,1.556,0,3.11,0,4.666,0,1.008.164,1.17,1.182,1.17,2.049,0,4.1,0,6.147,0,.255,0,.349.062.347.335-.012,1.373-.01,2.745,0,4.118a.5.5,0,0,1-.213.439A12.111,12.111,0,0,1,21.133,32.2a12.615,12.615,0,0,1-5.679-.55,10.861,10.861,0,0,1-5.025-3.568,13.007,13.007,0,0,1-2.778-7.141,13.5,13.5,0,0,1,1.72-8.016A11.285,11.285,0,0,1,16.217,7.5a12.442,12.442,0,0,1,5.947-.164,12.11,12.11,0,0,1,5,2.26c.4.3.773.644,1.16.964a.823.823,0,0,0,1.259-.035l.867-.84c.922-.89,1.844-1.774,2.763-2.664a.833.833,0,0,0,.208-1.152,1.746,1.746,0,0,0-.327-.4A19.246,19.246,0,0,0,21.2.092,19.416,19.416,0,0,0,6.357,5.127,19.2,19.2,0,0,0,.111,17.513a18.915,18.915,0,0,0,1.6,9.973A19.568,19.568,0,0,0,16.727,38.83a19.939,19.939,0,0,0,6.633-.168A18.366,18.366,0,0,0,29.29,36.4a.259.259,0,0,1,.406.067c.439.55.892,1.088,1.343,1.63a1.486,1.486,0,0,0,1.259.6c.585-.022,1.172,0,1.757,0,.964,0,1.125-.164,1.125-1.14V28.332q0-4.6,0-9.193ZM74,19.339c-.045-.453-.082-1.279-.221-2.089A12.3,12.3,0,0,0,71.809,12.3a11.754,11.754,0,0,0-12.4-4.951,10.962,10.962,0,0,0-5.672,3.179,12.724,12.724,0,0,0-3.5,7.79A13.4,13.4,0,0,0,51.2,25a11.162,11.162,0,0,0,9.227,7.186,11.883,11.883,0,0,0,4.834-.32,11.4,11.4,0,0,0,5.92-3.9,13.282,13.282,0,0,0,2.81-8.635ZM62.076,39.016a19.5,19.5,0,1,1,19.51-19.463,19.551,19.551,0,0,1-19.51,19.463Z" transform="translate(88.001 28.993)" fill="#fff"/>
    <path id="Path_3" data-name="Path 3" d="M506.023,38.405V53.27c0,.112,0,.223-.007.335a.439.439,0,0,1-.5.456c-.545,0-1.088,0-1.633,0-.709,0-1.417,0-2.126,0-.379,0-.538-.159-.55-.535,0-.079,0-.159,0-.235V30.347c0-.072,0-.144,0-.216a.439.439,0,0,1,.235-.441.506.506,0,0,1,.535.037q3.286,2.223,6.579,4.438,4.226,2.847,8.454,5.7c.057.04.119.069.223.126V30.627c0-.1,0-.211.005-.315a.414.414,0,0,1,.436-.431c.295-.007.59,0,.885,0h2.911c.419,0,.565.149.565.57V53.488c0,.426-.151.575-.585.575h-3.64c-.434,0-.577-.144-.58-.575q0-3.746,0-7.5a.506.506,0,0,0-.265-.488q-5.367-3.471-10.724-6.963c-.052-.035-.109-.064-.225-.131Z" transform="translate(-289.015 6.71)" fill="#fff"/>
    <path id="Path_4" data-name="Path 4" d="M614.077,42.713v7.5c0,.25,0,.255.253.255.956,0,1.915,0,2.872,0a7.872,7.872,0,0,0,2.872-.481,7.051,7.051,0,0,0,4.681-6.11,8.462,8.462,0,0,0-.292-3.484,7.159,7.159,0,0,0-1.63-2.944A7.465,7.465,0,0,0,617.256,35c-.964-.007-1.928,0-2.892,0-.287,0-.287,0-.287.295V42.71Zm-4.817-.042V31.1c.01-.357.169-.52.52-.52,2.939,0,5.877-.037,8.814.02a10.691,10.691,0,0,1,6.264,2.176,11.5,11.5,0,0,1,4.026,5.538,13.285,13.285,0,0,1,.729,5.005,12.315,12.315,0,0,1-1.955,6.358,11.046,11.046,0,0,1-5.513,4.386,10.88,10.88,0,0,1-3.769.694c-2.84.017-5.679.007-8.519.007-.448,0-.6-.151-.6-.6V42.673Z" transform="translate(-370.296 6.003)" fill="#fff"/>
    <path id="Path_5" data-name="Path 5" d="M402.85,44.873c-.813-1.7-1.6-3.348-2.413-5.037-.057.1-.092.156-.119.211q-1.1,2.3-2.2,4.6c-.107.225-.1.24.149.24h4.346c.062,0,.126,0,.243-.01Zm7.1,9.547c-.642,0-1.286-.015-1.928,0a.8.8,0,0,1-.82-.51q-.881-1.862-1.772-3.719c-.139-.29-.28-.577-.414-.867a.23.23,0,0,0-.24-.151q-4.349,0-8.7,0a.243.243,0,0,0-.245.176q-1.089,2.293-2.19,4.584a.766.766,0,0,1-.756.486c-1.338-.01-2.676,0-4.014,0-.225,0-.426-.047-.5-.29a.458.458,0,0,1,.007-.3q2.089-4.308,4.19-8.608l4.683-9.611q1.23-2.52,2.458-5.045a.8.8,0,0,1,1.432-.007q1.576,3.237,3.149,6.472l4.289,8.8q1.933,3.966,3.865,7.936a.425.425,0,0,1-.4.654c-.7.007-1.4,0-2.106,0v0Z" transform="translate(-204.124 6.351)" fill="#fff"/>
    <path id="Path_6" data-name="Path 6" d="M23.4,218.968c-2.106-.86-4.267-1.591-6.393-2.4a16.312,16.312,0,0,1-4.1-2.2,3.638,3.638,0,0,1-.047-5.456,7.12,7.12,0,0,1,1.467-.877,9.411,9.411,0,0,1,5.223-.4,39.5,39.5,0,0,1,6.546,1.645.752.752,0,0,0,1.036-.451q.963-2.185,1.923-4.376a.983.983,0,0,0-.562-1.375,34.366,34.366,0,0,0-8.207-2.322,19.892,19.892,0,0,0-9.369.8,9.673,9.673,0,0,0-5.652,4.723A11.618,11.618,0,0,0,4.214,212.9a9.114,9.114,0,0,0,2.733,5.627,15.3,15.3,0,0,0,5.29,3.442c2.076.838,4.2,1.541,6.309,2.307a16.02,16.02,0,0,1,4.074,2,2.679,2.679,0,0,1,.52,4.076,5.815,5.815,0,0,1-3.665,2,17.492,17.492,0,0,1-6.97-.369,20.761,20.761,0,0,1-4.428-1.665.927.927,0,0,0-1.3.32q-1.037,1.988-2.052,3.984a.871.871,0,0,0,.325,1.269,18.137,18.137,0,0,0,5.664,2.537,35.833,35.833,0,0,0,7.272.771,14.97,14.97,0,0,0,8.35-2.275,9.848,9.848,0,0,0,4.3-4.646,8.734,8.734,0,0,0-1.68-9.53,14.4,14.4,0,0,0-5.543-3.776Z" transform="translate(84.892 -121.85)" fill="#fff"/>
    <path id="Path_7" data-name="Path 7" d="M159.516,202.405H133.97c-.538.017-.793.24-.8.776q-.019,2.654,0,5.31c0,.53.223.728.758.776.149.012.3.01.448.01,2.755,0,5.511,0,8.266-.007.339,0,.444.087.444.436-.015,2.245-.007,4.487-.007,6.732v22.776c0,.833.213,1.048,1.031,1.048h5.461c.852,0,1.051-.2,1.051-1.058V209.769c0-.493,0-.5.483-.5q4.207,0,8.415,0c.825,0,1.036-.213,1.036-1.046q0-2.394,0-4.787c0-.833-.208-1.038-1.041-1.038Z" transform="translate(-12.167 -123.249)" fill="#fff"/>
    <path id="Path_8" data-name="Path 8" d="M302.378,203.265c-.027-.624-.255-.852-.877-.857-.847,0-1.695,0-2.542,0-1.085,0-2.171,0-3.256,0-.6,0-.84.248-.847.838,0,.173,0,.349,0,.523,0,6.72.007,13.44-.007,20.16a16.139,16.139,0,0,1-.86,5.474,6.08,6.08,0,0,1-4,4.034,12.61,12.61,0,0,1-5.293.384,7.62,7.62,0,0,1-3.271-1.08,6.632,6.632,0,0,1-2.7-3.91,18.435,18.435,0,0,1-.669-5.506q0-9.95,0-19.9c0-.81-.213-1.023-1.016-1.023h-5.461c-.865,0-1.058.193-1.058,1.051v11.185h.007c0,3.2-.022,6.408.007,9.611a20.822,20.822,0,0,0,1.061,6.576c1.858,5.441,5.6,8.67,11.316,9.517a22.494,22.494,0,0,0,8.506-.3,12.965,12.965,0,0,0,6.147-3.214,14.669,14.669,0,0,0,3.779-6.185,23.654,23.654,0,0,0,1.026-7.409V203.594c0-.111,0-.225,0-.337Z" transform="translate(-115.495 -123.249)" fill="#fff"/>
    <path id="Path_9" data-name="Path 9" d="M610.036,202.625a1.129,1.129,0,0,0-.681-.218c-2.245-.015-4.487-.007-6.732-.012a1.18,1.18,0,0,0-1.093.644q-4.263,7.244-8.536,14.48a3.49,3.49,0,0,1-.216.3c-.092-.139-.159-.238-.223-.342q-2.133-3.471-4.264-6.94c-1.512-2.463-3.025-4.923-4.517-7.4a1.338,1.338,0,0,0-1.259-.753c-2.18.017-4.363.007-6.544.007a2.053,2.053,0,0,0-.372.017.638.638,0,0,0-.461,1.008c.268.449.543.895.818,1.341q6.456,10.526,12.9,21.054a1.371,1.371,0,0,1,.186.662c.015,1.42.007,2.842.007,4.264v8.526c0,.768.218.986.974.986.922,0,1.846,0,2.768,0,.984,0,1.97,0,2.954,0,.57,0,.813-.253.835-.823,0-.161,0-.325,0-.486q0-6.244.007-12.491a1.435,1.435,0,0,1,.181-.7q3.051-5.14,6.125-10.268,3.594-6.014,7.191-12.022a.6.6,0,0,0-.055-.84Z" transform="translate(-344.542 -123.241)" fill="#fff"/>
    <path id="Path_10" data-name="Path 10" d="M459.587,227.908a10.546,10.546,0,0,1-7.478,5.335,20.309,20.309,0,0,1-3.226.3c-1.345.05-2.693,0-4.039.02-.364.007-.458-.1-.458-.458.012-3.888.007-7.778.007-11.668v-8.863h0c0-.927,0-1.851,0-2.778,0-.359.094-.463.458-.458.835.012,1.326,0,1.962,0v0h.674l.193,0v0h.991c.664.012,1.323.04,1.98.114a11,11,0,0,1,9.465,6.965,12.588,12.588,0,0,1-.535,11.485Zm7.976-13.363a17.7,17.7,0,0,0-17.127-12.126q-6.285.007-12.568,0c-.1,0-.2,0-.3,0a.681.681,0,0,0-.7.681c-.017.173-.012.349-.012.523V239.2c0,.892.188,1.083,1.065,1.083q6.211,0,12.416,0c.659,0,1.321-.03,1.977-.084a17.209,17.209,0,0,0,10.162-4.252,17.993,17.993,0,0,0,6.071-11.891A20.843,20.843,0,0,0,467.563,214.545Z" transform="translate(-240.611 -123.263)" fill="#fff"/>
  </g>
</svg>
