<svg xmlns="http://www.w3.org/2000/svg" width="80" height="60" viewBox="0 0 80 60">
  <path id="envelope-solid" d="M78.484,83.813A.941.941,0,0,1,80,84.547V116.5a7.5,7.5,0,0,1-7.5,7.5H7.5A7.5,7.5,0,0,1,0,116.5V84.563a.934.934,0,0,1,1.516-.734c3.5,2.719,8.141,6.172,24.078,17.75,3.3,2.406,8.859,7.469,14.406,7.438,5.578.047,11.25-5.125,14.422-7.437C70.359,90,74.984,86.531,78.484,83.813ZM40,104c3.625.063,8.844-4.563,11.469-6.469C72.2,82.484,73.781,81.172,78.563,77.422A3.739,3.739,0,0,0,80,74.469V71.5A7.5,7.5,0,0,0,72.5,64H7.5A7.5,7.5,0,0,0,0,71.5v2.969a3.762,3.762,0,0,0,1.438,2.953C6.219,81.156,7.8,82.484,28.531,97.531,31.156,99.438,36.375,104.063,40,104Z" transform="translate(0 -64)" fill="#ffd129"/>
</svg>
