<svg xmlns="http://www.w3.org/2000/svg" width="27.881" height="20.911" viewBox="0 0 27.881 20.911">
  <path id="envelope-solid2" d="M27.353,70.9a.328.328,0,0,1,.528.256V82.3a2.615,2.615,0,0,1-2.614,2.614H2.614A2.615,2.615,0,0,1,0,82.3V71.166a.326.326,0,0,1,.528-.256c1.22.948,2.837,2.151,8.391,6.186,1.149.839,3.088,2.6,5.021,2.592,1.944.016,3.921-1.786,5.026-2.592C24.521,73.061,26.133,71.852,27.353,70.9ZM13.94,77.94c1.263.022,3.082-1.59,4-2.254,7.226-5.244,7.776-5.7,9.442-7.008a1.3,1.3,0,0,0,.5-1.029V66.614A2.615,2.615,0,0,0,25.267,64H2.614A2.615,2.615,0,0,0,0,66.614v1.035a1.311,1.311,0,0,0,.5,1.029c1.666,1.3,2.216,1.764,9.442,7.008C10.858,76.35,12.677,77.962,13.94,77.94Z" transform="translate(0 -64)"/>
</svg>
