<svg xmlns="http://www.w3.org/2000/svg" width="85" height="85" viewBox="0 0 85 85">
  <path id="flag-regular" d="M55.81,13.281c-8.157,0-15.49-5.313-26.88-5.313a36.846,36.846,0,0,0-13.4,2.518A7.969,7.969,0,1,0,3.984,14.869V82.344A2.656,2.656,0,0,0,6.641,85H9.3a2.656,2.656,0,0,0,2.656-2.656V68.491A45.689,45.689,0,0,1,33.174,63.75c8.157,0,15.49,5.312,26.88,5.312A38.57,38.57,0,0,0,81.4,62.425,7.962,7.962,0,0,0,85,55.757V15.927A7.965,7.965,0,0,0,73.893,8.6C67.932,11.174,61.7,13.281,55.81,13.281Zm21.221,42.5a31.225,31.225,0,0,1-16.977,5.313c-9.952,0-16.934-5.312-26.88-5.312-7.2,0-16,1.561-21.221,3.984V21.25A31.226,31.226,0,0,1,28.93,15.937c9.952,0,16.934,5.313,26.88,5.313,7.184,0,15.991-2.883,21.221-5.313Z" transform="translate(0 0)" fill="#ffd129"/>
</svg>
