<svg xmlns="http://www.w3.org/2000/svg" width="28.61" height="28.616" viewBox="0 0 28.61 28.616">
  <path id="globe-solid" d="M19.414,16.769C18.577,11.617,16.6,8,14.308,8S10.039,11.617,9.2,16.769ZM8.769,22.308A36.162,36.162,0,0,0,8.96,26H19.651a36.162,36.162,0,0,0,.19-3.692,36.163,36.163,0,0,0-.19-3.692H8.96A36.162,36.162,0,0,0,8.769,22.308ZM27.5,16.769A14.338,14.338,0,0,0,18.387,8.6a19.472,19.472,0,0,1,2.885,8.169ZM10.223,8.6a14.329,14.329,0,0,0-9.11,8.169H7.344A19.393,19.393,0,0,1,10.223,8.6Zm17.9,10.016H21.5c.121,1.212.19,2.452.19,3.692S21.624,24.789,21.5,26h6.612a14.185,14.185,0,0,0,.5-3.692A14.432,14.432,0,0,0,28.12,18.616Zm-21.2,3.692c0-1.24.069-2.481.19-3.692H.5A13.987,13.987,0,0,0,.5,26H7.108C6.992,24.789,6.923,23.548,6.923,22.308ZM9.2,27.847c.837,5.152,2.81,8.769,5.106,8.769S18.577,33,19.414,27.847Zm9.191,8.169a14.352,14.352,0,0,0,9.116-8.169H21.277A19.472,19.472,0,0,1,18.393,36.016ZM1.113,27.847a14.338,14.338,0,0,0,9.116,8.169,19.472,19.472,0,0,1-2.885-8.169H1.113Z" transform="translate(0 -8)"/>
</svg>
