<svg xmlns="http://www.w3.org/2000/svg" width="100.964" height="78.513" viewBox="0 0 100.964 78.513">
  <path id="home-solid" d="M49.128,52.418,16.813,79.033v28.725a2.8,2.8,0,0,0,2.8,2.8l19.641-.051a2.8,2.8,0,0,0,2.79-2.8V90.933a2.8,2.8,0,0,1,2.8-2.8H56.071a2.8,2.8,0,0,1,2.8,2.8V107.7a2.8,2.8,0,0,0,2.8,2.813l19.634.054a2.8,2.8,0,0,0,2.8-2.8V79.014L51.81,52.418a2.137,2.137,0,0,0-2.682,0Zm51.044,18.09L85.52,58.43V34.153a2.1,2.1,0,0,0-2.1-2.1H73.6a2.1,2.1,0,0,0-2.1,2.1V46.88L55.806,33.969a8.413,8.413,0,0,0-10.692,0L.748,70.508a2.1,2.1,0,0,0-.28,2.962L4.937,78.9a2.1,2.1,0,0,0,2.964.286L49.128,45.232a2.137,2.137,0,0,1,2.682,0L93.039,79.189A2.1,2.1,0,0,0,96,78.909l4.469-5.433a2.1,2.1,0,0,0-.3-2.967Z" transform="translate(0.015 -32.05)" fill="#ffd129"/>
</svg>
