<svg xmlns="http://www.w3.org/2000/svg" width="110.141" height="85.665" viewBox="0 0 110.141 85.665">
  <path id="id-card-regular" d="M100.962,32H9.178A9.181,9.181,0,0,0,0,41.178v67.308a9.181,9.181,0,0,0,9.178,9.178h91.784a9.181,9.181,0,0,0,9.178-9.178V41.178A9.181,9.181,0,0,0,100.962,32Zm0,76.487H57.977c.172-.86.153.688.153-4.283,0-6.081-5.756-11.014-12.85-11.014-2.065,0-3.576,1.53-8.566,1.53-5.144,0-6.387-1.53-8.566-1.53-7.094,0-12.85,4.933-12.85,11.014,0,4.972-.038,3.423.153,4.283H9.178V53.416h91.784Zm-32.124-15.3H90.254a1.534,1.534,0,0,0,1.53-1.53V88.6a1.534,1.534,0,0,0-1.53-1.53H68.838a1.534,1.534,0,0,0-1.53,1.53V91.66A1.534,1.534,0,0,0,68.838,93.189Zm0-12.238H90.254a1.534,1.534,0,0,0,1.53-1.53V76.362a1.534,1.534,0,0,0-1.53-1.53H68.838a1.534,1.534,0,0,0-1.53,1.53v3.059A1.534,1.534,0,0,0,68.838,80.951Zm0-12.238H90.254a1.534,1.534,0,0,0,1.53-1.53V64.124a1.534,1.534,0,0,0-1.53-1.53H68.838a1.534,1.534,0,0,0-1.53,1.53v3.059A1.534,1.534,0,0,0,68.838,68.714ZM36.714,87.07A12.238,12.238,0,1,0,24.476,74.832,12.249,12.249,0,0,0,36.714,87.07Z" transform="translate(0 -32)" fill="#ffd129"/>
</svg>
