<svg xmlns="http://www.w3.org/2000/svg" width="30.224" height="30.218" viewBox="0 0 30.224 30.218">
  <path id="instagram-brands" d="M15.041,39.186a7.747,7.747,0,1,0,7.747,7.747A7.735,7.735,0,0,0,15.041,39.186Zm0,12.784a5.037,5.037,0,1,1,5.037-5.037A5.046,5.046,0,0,1,15.041,51.971Zm9.871-13.1a1.807,1.807,0,1,1-1.807-1.807A1.8,1.8,0,0,1,24.912,38.87ZM30.043,40.7A8.943,8.943,0,0,0,27.6,34.372a9,9,0,0,0-6.331-2.441c-2.495-.142-9.973-.142-12.467,0a8.989,8.989,0,0,0-6.331,2.434A8.972,8.972,0,0,0,.031,40.7c-.142,2.495-.142,9.973,0,12.467A8.943,8.943,0,0,0,2.472,59.5,9.013,9.013,0,0,0,8.8,61.937c2.495.142,9.973.142,12.467,0A8.943,8.943,0,0,0,27.6,59.5a9,9,0,0,0,2.441-6.331C30.185,50.669,30.185,43.2,30.043,40.7ZM26.82,55.841a5.1,5.1,0,0,1-2.872,2.872c-1.989.789-6.709.607-8.907.607s-6.925.175-8.907-.607a5.1,5.1,0,0,1-2.872-2.872c-.789-1.989-.607-6.709-.607-8.907s-.175-6.925.607-8.907a5.1,5.1,0,0,1,2.872-2.872c1.989-.789,6.709-.607,8.907-.607s6.925-.175,8.907.607a5.1,5.1,0,0,1,2.872,2.872c.789,1.989.607,6.709.607,8.907S27.609,53.859,26.82,55.841Z" transform="translate(0.075 -31.825)" fill="#fff"/>
</svg>
