<svg xmlns="http://www.w3.org/2000/svg" width="75.251" height="65.845" viewBox="0 0 75.251 65.845">
  <path id="list-ol-solid" d="M9.079,86.234l2.572-2.962a2.928,2.928,0,0,0,.745-2.086V80.7a1.49,1.49,0,0,0-1.667-1.668H2.352a1.176,1.176,0,0,0-1.176,1.176v2.352a1.176,1.176,0,0,0,1.176,1.176H5.707A23.137,23.137,0,0,0,4.09,85.544l-.825,1.029a1.953,1.953,0,0,0-.412,2.187l.154.284a1.789,1.789,0,0,0,1.8,1.158h.7c1.518,0,2.343.359,2.343,1.336,0,.694-.617,1.208-2.111,1.208a6.106,6.106,0,0,1-2.274-.459c-.954-.57-1.725-.514-2.293.459L.348,94.114a1.583,1.583,0,0,0,.387,2.343,10.553,10.553,0,0,0,5.438,1.387c5.021,0,7.128-3.344,7.128-6.485A5.314,5.314,0,0,0,9.079,86.234ZM72.9,60.219H25.868a2.352,2.352,0,0,0-2.352,2.352v4.7a2.352,2.352,0,0,0,2.352,2.352H72.9a2.352,2.352,0,0,0,2.352-2.352v-4.7A2.352,2.352,0,0,0,72.9,60.219Zm0-23.516H25.868a2.352,2.352,0,0,0-2.352,2.352v4.7a2.352,2.352,0,0,0,2.352,2.352H72.9a2.352,2.352,0,0,0,2.352-2.352v-4.7A2.352,2.352,0,0,0,72.9,36.7Zm0,47.032H25.868a2.352,2.352,0,0,0-2.352,2.352v4.7a2.352,2.352,0,0,0,2.352,2.352H72.9a2.352,2.352,0,0,0,2.352-2.352v-4.7A2.352,2.352,0,0,0,72.9,83.735ZM2.352,50.813h9.406a1.176,1.176,0,0,0,1.176-1.176V47.285a1.176,1.176,0,0,0-1.176-1.176H9.406V33.176A1.176,1.176,0,0,0,8.231,32H4.7a1.176,1.176,0,0,0-1.049.65L2.478,35a1.176,1.176,0,0,0,1.049,1.7H4.7V46.11H2.352a1.176,1.176,0,0,0-1.176,1.176v2.352A1.176,1.176,0,0,0,2.352,50.813ZM1.777,74.329h9.981a1.176,1.176,0,0,0,1.176-1.176V70.8a1.176,1.176,0,0,0-1.176-1.176H6.073c.484-1.512,7.1-2.745,7.1-8.3,0-4.271-3.674-5.814-6.536-5.814A7.127,7.127,0,0,0,.7,58.272a1.453,1.453,0,0,0,.412,2.259l1.261,1.011c.825.67,1.617.363,2.369-.359a1.975,1.975,0,0,1,1.39-.564A1.252,1.252,0,0,1,7.491,61.9C7.5,63.774,0,65.115,0,72.064v.588A1.608,1.608,0,0,0,1.777,74.329Z" transform="translate(0 -32)" fill="#ffd129"/>
</svg>
