<svg xmlns="http://www.w3.org/2000/svg" width="79.778" height="74.46" viewBox="0 0 79.778 74.46">
  <path id="university-solid" d="M95.778,47.955v2.659a1.33,1.33,0,0,1-1.33,1.33H90.46v1.994a2,2,0,0,1-1.994,1.994H23.313a2,2,0,0,1-1.994-1.994V51.944H17.33A1.33,1.33,0,0,1,16,50.615V47.955a1.33,1.33,0,0,1,.821-1.229L55.381,32.1a1.329,1.329,0,0,1,1.017,0l38.56,14.626A1.33,1.33,0,0,1,95.778,47.955ZM91.789,98.482h-71.8A3.989,3.989,0,0,0,16,102.471v2.659a1.33,1.33,0,0,0,1.33,1.33H94.449a1.33,1.33,0,0,0,1.33-1.33v-2.659A3.989,3.989,0,0,0,91.789,98.482ZM29.3,58.593V90.5H23.313A2,2,0,0,0,21.319,92.5v3.324H90.46V92.5A2,2,0,0,0,88.465,90.5H82.482V58.593H71.845V90.5H61.208V58.593H50.571V90.5H39.933V58.593Z" transform="translate(-16 -32)" fill="#ffd129"/>
</svg>
