<svg xmlns="http://www.w3.org/2000/svg" width="41.758" height="41.758" viewBox="0 0 41.758 41.758">
  <path id="whatsapp-brands" d="M35.5,38.068A20.7,20.7,0,0,0,2.936,63.039L0,73.758l10.971-2.88a20.629,20.629,0,0,0,9.89,2.517h.009A20.561,20.561,0,0,0,35.5,38.068ZM20.87,69.908a17.168,17.168,0,0,1-8.762-2.4l-.625-.373L4.977,68.846,6.711,62.5l-.41-.652A17.232,17.232,0,1,1,38.262,52.7,17.391,17.391,0,0,1,20.87,69.908ZM30.3,57.027c-.513-.261-3.057-1.51-3.533-1.678s-.82-.261-1.165.261-1.333,1.678-1.64,2.032-.606.391-1.119.13c-3.039-1.519-5.033-2.712-7.037-6.152-.531-.913.531-.848,1.519-2.824a.958.958,0,0,0-.047-.9c-.13-.261-1.165-2.806-1.594-3.84-.419-1.007-.848-.867-1.165-.885-.3-.019-.643-.019-.988-.019a1.915,1.915,0,0,0-1.379.643,5.81,5.81,0,0,0-1.808,4.316,10.129,10.129,0,0,0,2.107,5.35c.261.345,3.644,5.565,8.836,7.811,3.281,1.417,4.567,1.538,6.208,1.3,1-.149,3.057-1.249,3.486-2.461a4.324,4.324,0,0,0,.3-2.461C31.16,57.409,30.815,57.278,30.3,57.027Z" transform="translate(0 -32)" fill="#fff"/>
</svg>
