<svg xmlns="http://www.w3.org/2000/svg" width="42.977" height="30.218" viewBox="0 0 42.977 30.218">
  <path id="youtube-brands" d="M57.012,68.728a5.4,5.4,0,0,0-3.8-3.824C49.86,64,36.421,64,36.421,64s-13.439,0-16.791.9a5.4,5.4,0,0,0-3.8,3.824c-.9,3.373-.9,10.411-.9,10.411s0,7.038.9,10.411a5.32,5.32,0,0,0,3.8,3.763c3.352.9,16.791.9,16.791.9s13.439,0,16.791-.9a5.32,5.32,0,0,0,3.8-3.763c.9-3.373.9-10.411.9-10.411S57.91,72.1,57.012,68.728ZM32.026,85.53V72.749l11.232,6.39Z" transform="translate(-14.933 -64)" fill="#fff"/>
</svg>
